<svg width="12" height="12" viewBox="0 0 12 12" fill="none" xmlns="http://www.w3.org/2000/svg">
<path d="M3.55545 2.5C3.91445 2.5 4.24212 2.53167 4.53845 2.595C4.83445 2.65833 5.08829 2.76233 5.29995 2.907C5.51129 3.052 5.67512 3.24417 5.79145 3.4835C5.90812 3.7235 5.96645 4.01967 5.96645 4.372C5.96645 4.75267 5.87995 5.06983 5.70695 5.3235C5.53429 5.57717 5.27879 5.78517 4.94045 5.9475C5.40545 6.0815 5.75262 6.31583 5.98195 6.6505C6.21129 6.98517 6.32595 7.38883 6.32595 7.8615C6.32595 8.24183 6.25179 8.5715 6.10345 8.8505C5.96151 9.12193 5.75684 9.35557 5.50645 9.532C5.25612 9.70867 4.97045 9.83917 4.64945 9.9235C4.32685 10.0085 3.99456 10.0512 3.66095 10.0505H0.00195312V2.5H3.55545ZM3.34345 5.5565C3.63945 5.5565 3.88279 5.48583 4.07345 5.3445C4.26345 5.20383 4.35845 4.97483 4.35845 4.6575C4.35845 4.48083 4.32679 4.33633 4.26345 4.224C4.204 4.11471 4.1165 4.02324 4.00995 3.959C3.89707 3.89371 3.77348 3.84902 3.64495 3.827C3.50345 3.80238 3.36008 3.79 3.21645 3.79H1.66195V5.5565H3.34345ZM3.43845 8.7605C3.60079 8.7605 3.75595 8.7445 3.90395 8.7125C4.05195 8.68083 4.18245 8.628 4.29545 8.554C4.40812 8.48 4.49795 8.3795 4.56495 8.2525C4.63162 8.12583 4.66495 7.96367 4.66495 7.766C4.66495 7.37867 4.55579 7.102 4.33745 6.936C4.11912 6.77033 3.83012 6.6875 3.47045 6.6875H1.66195V8.76L3.43845 8.7605ZM8.41495 8.6015C8.64062 8.8205 8.96495 8.92983 9.38795 8.9295C9.69129 8.9295 9.95212 8.85367 10.1705 8.702C10.3888 8.551 10.5228 8.39067 10.5725 8.221H11.8945C11.6828 8.877 11.3585 9.34583 10.9215 9.6275C10.4841 9.9095 9.95529 10.0505 9.33495 10.0505C8.90495 10.0505 8.51729 9.98167 8.17195 9.844C7.83938 9.7161 7.53945 9.51575 7.29395 9.2575C7.04929 8.99503 6.86047 8.68561 6.73895 8.348C6.60862 7.99567 6.54345 7.60783 6.54345 7.1845C6.54345 6.77583 6.61045 6.39533 6.74445 6.043C6.87131 5.7027 7.06552 5.39149 7.31545 5.128C7.56619 4.86835 7.86644 4.66161 8.19845 4.52C8.54012 4.372 8.91895 4.298 9.33495 4.298C9.79995 4.298 10.2055 4.388 10.5515 4.568C10.8965 4.74767 11.1801 4.989 11.4025 5.292C11.6245 5.59533 11.785 5.94067 11.884 6.328C11.9836 6.72531 12.0192 7.13597 11.9895 7.5445H8.04545C8.06679 8.03083 8.18962 8.38317 8.41495 8.6015ZM10.113 5.7255C9.93295 5.52817 9.65962 5.4295 9.29295 5.4295C9.05329 5.4295 8.85429 5.47 8.69595 5.551C8.55659 5.6175 8.43278 5.71259 8.33259 5.83009C8.23241 5.94759 8.15808 6.08487 8.11445 6.233C8.07855 6.35016 8.05541 6.47086 8.04545 6.593H10.4885C10.4178 6.212 10.2926 5.92283 10.113 5.7255ZM7.78895 2.8835H10.841V3.7295H7.78895V2.8835Z" fill="black"/>
</svg>
