<svg width="12" height="12" viewBox="0 0 12 12" fill="none" xmlns="http://www.w3.org/2000/svg">
<path d="M2.65765 1.05018C3.05315 0.993684 3.60765 1.12268 4.32415 1.53318L4.46015 1.61368L4.54015 1.66368L4.73865 1.62218C5.49555 1.47593 6.27211 1.46239 7.03365 1.58218L7.26165 1.62218L7.45965 1.66368L7.54015 1.61368C8.23265 1.19368 8.78365 1.02868 9.20115 1.03968L9.28315 1.04368L9.35665 1.05218L9.39465 1.05918L9.41965 1.06468L9.49165 1.08818C9.60953 1.13691 9.70433 1.22885 9.75665 1.34518C9.96125 1.80103 10.0302 2.30619 9.95515 2.80018L9.93165 2.93368L9.90865 3.03168L9.97015 3.11318C10.2571 3.51068 10.4351 3.97718 10.4851 4.46668L10.4966 4.61418L10.5001 4.75018C10.5001 6.67768 9.67065 7.69168 8.17815 8.09018L8.05565 8.12068L7.98965 8.13518L7.99665 8.21568L8.00065 8.29418L8.00265 8.47668L8.00165 8.58318L8.00015 10.5002C8.00013 10.6227 7.95517 10.7409 7.87379 10.8324C7.79241 10.9239 7.68027 10.9824 7.55865 10.9967L7.50015 11.0002H4.50015C4.37768 11.0002 4.25948 10.9552 4.16796 10.8738C4.07644 10.7924 4.01798 10.6803 4.00365 10.5587L4.00015 10.5002V10.1332C3.09115 10.2632 2.48515 9.92118 1.94515 9.19418L1.67765 8.81118C1.53765 8.61318 1.45015 8.52168 1.38315 8.48918L1.35915 8.47968C1.23535 8.43946 1.13213 8.35254 1.07141 8.2374C1.01069 8.12226 0.99726 7.98799 1.03398 7.86311C1.0707 7.73823 1.15468 7.63259 1.26806 7.56865C1.38144 7.5047 1.51528 7.4875 1.64115 7.52068C1.96215 7.61468 2.17815 7.80468 2.42615 8.14018L2.69515 8.52468C3.07515 9.06418 3.37515 9.25418 3.99965 9.12018L4.00015 8.78118L3.99115 8.69718C3.97631 8.56037 3.9728 8.42257 3.98065 8.28518L3.98915 8.19268L3.99865 8.13268L3.94465 8.12068C2.45665 7.76568 1.59315 6.83418 1.50715 5.05118L1.50215 4.89618L1.50015 4.75018C1.50073 4.20847 1.65843 3.67856 1.95415 3.22468L2.03015 3.11368L2.09115 3.03218L2.06865 2.93418C1.97851 2.49497 2.00348 2.0399 2.14115 1.61318L2.19115 1.47218L2.24415 1.34568C2.29635 1.22944 2.39095 1.13752 2.50865 1.08868L2.58065 1.06518L2.65765 1.05018Z" fill="black"/>
</svg>
